<svg xmlns="http://www.w3.org/2000/svg" viewBox="0 0 48 48"><linearGradient id="Ld6sqrtcxMyckEl6xeDdMa" x1="9.993" x2="40.615" y1="9.993" y2="40.615" gradientUnits="userSpaceOnUse"><stop offset="0" stop-color="#2aa4f4"/><stop offset="1" stop-color="#007ad9"/></linearGradient><path fill="url(#Ld6sqrtcxMyckEl6xeDdMa)" d="M24,4C12.954,4,4,12.954,4,24s8.954,20,20,20s20-8.954,20-20S35.046,4,24,4z"/><path fill="#fff" d="M26.707,29.301h5.166l0.708-5.47h-5.873v-3.47c0-1.503,0.737-2.968,3.1-2.968h2.399V12.74c-0.417-0.056-1.85-0.18-3.522-0.18c-3.483,0-5.87,2.126-5.87,6.037v3.235h-3.928v5.47h3.928v13.231c1.233,0.193,2.498,0.297,3.793,0.297V29.301z"/></svg>